<svg width="319" height="90" viewBox="0 0 319 90" fill="none" xmlns="http://www.w3.org/2000/svg">
<path d="M123.92 62.48C121.072 62.48 118.976 61.824 117.632 60.512C116.32 59.168 115.664 57.2 115.664 54.608V31.904L120.608 30.032V54.656C120.608 55.936 120.944 56.88 121.616 57.488C122.288 58.096 123.376 58.4 124.88 58.4C125.456 58.4 125.968 58.352 126.416 58.256C126.864 58.16 127.248 58.048 127.568 57.92V61.952C127.216 62.112 126.72 62.24 126.08 62.336C125.44 62.432 124.72 62.48 123.92 62.48ZM110.768 41.504V37.52H127.568V41.504H110.768ZM141.292 62.48C138.828 62.48 136.652 61.936 134.764 60.848C132.908 59.76 131.452 58.256 130.396 56.336C129.34 54.416 128.812 52.208 128.812 49.712C128.812 47.184 129.324 44.976 130.348 43.088C131.404 41.168 132.876 39.68 134.764 38.624C136.652 37.568 138.812 37.04 141.244 37.04C143.612 37.04 145.66 37.552 147.388 38.576C149.148 39.568 150.492 40.96 151.42 42.752C152.38 44.544 152.86 46.672 152.86 49.136C152.86 49.52 152.844 49.888 152.812 50.24C152.812 50.56 152.78 50.896 152.716 51.248H132.172V47.504H149.212L147.964 48.992C147.964 46.368 147.372 44.368 146.188 42.992C145.004 41.616 143.356 40.928 141.244 40.928C138.972 40.928 137.164 41.712 135.82 43.28C134.508 44.816 133.852 46.96 133.852 49.712C133.852 52.496 134.508 54.672 135.82 56.24C137.164 57.808 139.02 58.592 141.388 58.592C142.828 58.592 144.076 58.304 145.132 57.728C146.188 57.12 146.972 56.24 147.484 55.088H152.188C151.388 57.392 150.028 59.2 148.108 60.512C146.22 61.824 143.948 62.48 141.292 62.48ZM157.006 62V37.52H161.758V43.616H161.998V62H157.006ZM161.998 49.232L161.374 43.424C161.95 41.344 162.942 39.76 164.35 38.672C165.758 37.584 167.438 37.04 169.39 37.04C170.126 37.04 170.638 37.104 170.926 37.232V41.936C170.766 41.872 170.542 41.84 170.254 41.84C169.966 41.808 169.614 41.792 169.198 41.792C166.798 41.792 164.99 42.416 163.774 43.664C162.59 44.912 161.998 46.768 161.998 49.232ZM188.839 62C188.679 61.392 188.567 60.72 188.503 59.984C188.471 59.248 188.455 58.352 188.455 57.296H188.215V45.632C188.215 44.064 187.815 42.896 187.015 42.128C186.247 41.328 185.015 40.928 183.319 40.928C181.687 40.928 180.375 41.248 179.383 41.888C178.423 42.528 177.863 43.44 177.703 44.624H172.951C173.175 42.32 174.215 40.48 176.071 39.104C177.927 37.728 180.407 37.04 183.511 37.04C186.711 37.04 189.111 37.792 190.711 39.296C192.311 40.768 193.111 42.944 193.111 45.824V57.296C193.111 58.032 193.159 58.784 193.255 59.552C193.351 60.32 193.495 61.136 193.687 62H188.839ZM180.391 62.48C177.895 62.48 175.911 61.872 174.439 60.656C172.967 59.408 172.231 57.728 172.231 55.616C172.231 53.44 172.999 51.728 174.535 50.48C176.103 49.2 178.343 48.336 181.255 47.888L189.319 46.592V50.096L182.023 51.248C180.391 51.504 179.159 51.936 178.327 52.544C177.527 53.152 177.127 54.032 177.127 55.184C177.127 56.304 177.495 57.152 178.231 57.728C178.999 58.272 180.103 58.544 181.543 58.544C183.463 58.544 185.047 58.08 186.295 57.152C187.575 56.224 188.215 55.056 188.215 53.648L188.839 57.2C188.263 58.896 187.239 60.208 185.767 61.136C184.295 62.032 182.503 62.48 180.391 62.48Z" fill="#1B75BB"/>
<path d="M207.465 62.48C204.265 62.48 201.721 61.776 199.833 60.368C197.945 58.96 196.873 56.976 196.617 54.416H201.225C201.449 55.824 202.089 56.912 203.145 57.68C204.233 58.416 205.705 58.784 207.561 58.784C209.193 58.784 210.441 58.496 211.305 57.92C212.169 57.344 212.601 56.528 212.601 55.472C212.601 54.704 212.345 54.064 211.833 53.552C211.353 53.008 210.393 52.56 208.953 52.208L205.017 51.296C202.553 50.688 200.713 49.792 199.497 48.608C198.313 47.392 197.721 45.904 197.721 44.144C197.721 41.936 198.537 40.208 200.169 38.96C201.833 37.68 204.105 37.04 206.985 37.04C209.833 37.04 212.121 37.68 213.849 38.96C215.609 40.24 216.601 42.032 216.825 44.336H212.217C212.025 43.184 211.465 42.304 210.537 41.696C209.641 41.056 208.409 40.736 206.841 40.736C205.369 40.736 204.233 41.008 203.433 41.552C202.665 42.064 202.281 42.784 202.281 43.712C202.281 44.48 202.569 45.12 203.145 45.632C203.753 46.144 204.745 46.576 206.121 46.928L210.153 47.936C212.489 48.512 214.249 49.456 215.433 50.768C216.617 52.048 217.209 53.6 217.209 55.424C217.209 57.632 216.345 59.36 214.617 60.608C212.921 61.856 210.537 62.48 207.465 62.48ZM231.896 62.48C229.56 62.48 227.48 61.936 225.656 60.848C223.832 59.728 222.392 58.208 221.336 56.288C220.312 54.368 219.8 52.176 219.8 49.712C219.8 47.248 220.312 45.072 221.336 43.184C222.392 41.264 223.832 39.76 225.656 38.672C227.48 37.584 229.544 37.04 231.848 37.04C233.8 37.04 235.544 37.408 237.08 38.144C238.616 38.88 239.88 39.904 240.872 41.216C241.864 42.528 242.504 44.08 242.792 45.872H238.088C237.768 44.432 237.064 43.28 235.976 42.416C234.92 41.552 233.576 41.12 231.944 41.12C230.536 41.12 229.304 41.472 228.248 42.176C227.192 42.88 226.376 43.872 225.8 45.152C225.224 46.432 224.936 47.952 224.936 49.712C224.936 51.44 225.224 52.96 225.8 54.272C226.376 55.584 227.192 56.608 228.248 57.344C229.304 58.048 230.552 58.4 231.992 58.4C233.56 58.4 234.888 57.984 235.976 57.152C237.096 56.288 237.816 55.136 238.136 53.696H242.84C242.52 55.456 241.848 56.992 240.824 58.304C239.832 59.616 238.568 60.64 237.032 61.376C235.496 62.112 233.784 62.48 231.896 62.48ZM246.822 62V37.52H251.574V43.616H251.814V62H246.822ZM251.814 49.232L251.19 43.424C251.766 41.344 252.758 39.76 254.166 38.672C255.574 37.584 257.254 37.04 259.206 37.04C259.942 37.04 260.454 37.104 260.742 37.232V41.936C260.582 41.872 260.358 41.84 260.07 41.84C259.782 41.808 259.43 41.792 259.014 41.792C256.614 41.792 254.806 42.416 253.59 43.664C252.406 44.912 251.814 46.768 251.814 49.232ZM263.815 62V37.52H268.807V62H263.815ZM263.575 32.72V27.104H269.095V32.72H263.575ZM287.911 62.432C285.607 62.432 283.687 61.888 282.151 60.8C280.647 59.68 279.655 58.128 279.175 56.144L279.847 56.048V71.84H274.855V37.52H279.607V43.136L279.127 42.992C279.639 41.136 280.727 39.68 282.391 38.624C284.055 37.568 286.007 37.04 288.247 37.04C290.455 37.04 292.359 37.568 293.959 38.624C295.591 39.68 296.839 41.152 297.703 43.04C298.599 44.928 299.047 47.136 299.047 49.664C299.047 52.224 298.583 54.464 297.655 56.384C296.727 58.304 295.431 59.792 293.767 60.848C292.103 61.904 290.151 62.432 287.911 62.432ZM286.855 58.304C289.031 58.304 290.759 57.536 292.039 56C293.319 54.464 293.959 52.352 293.959 49.664C293.959 47.008 293.319 44.944 292.039 43.472C290.759 41.968 289.015 41.216 286.807 41.216C284.631 41.216 282.887 41.984 281.575 43.52C280.295 45.024 279.655 47.12 279.655 49.808C279.655 52.432 280.295 54.512 281.575 56.048C282.887 57.552 284.647 58.304 286.855 58.304ZM313.421 62.48C310.573 62.48 308.477 61.824 307.133 60.512C305.821 59.168 305.165 57.2 305.165 54.608V31.904L310.109 30.032V54.656C310.109 55.936 310.445 56.88 311.117 57.488C311.789 58.096 312.877 58.4 314.381 58.4C314.957 58.4 315.469 58.352 315.917 58.256C316.365 58.16 316.749 58.048 317.069 57.92V61.952C316.717 62.112 316.221 62.24 315.581 62.336C314.941 62.432 314.221 62.48 313.421 62.48ZM300.269 41.504V37.52H317.069V41.504H300.269Z" fill="#E6E7E8"/>
<path d="M99.8061 53.255C99.9258 53.5725 102.775 61.3169 97.9265 69.1316C94.6421 74.4213 88.7218 81.3293 72.3207 84.1739C64.2902 85.5649 56.9096 84.0965 51.4588 81.3525C51.5392 81.393 51.6152 81.4362 51.6962 81.4758L51.6183 81.4375C46.6219 79.6789 40.2343 76.8422 35.7016 71.5659C35.7016 71.5659 33.9126 76.3002 24.1573 77.3298C11.83 78.634 6.2571 72.2162 5.17564 67.1119C4.07773 61.9328 5.16136 55.7961 15.4448 53.1297C24.0542 50.9014 29.0299 53.1325 30.4206 53.9163L30.5323 54.0239C31.2394 50.9631 32.7267 49.453 32.7267 49.453L32.5908 49.4173C28.7948 48.3523 23.7671 46.5646 17.5438 43.5514C4.51611 37.2427 3.5214 24.224 6.54805 19.2523C9.68145 14.1129 19.6722 7.13415 35.2331 14.1286C43.9896 18.0611 48.8342 24.8607 51.3976 30.0482L51.8266 29.8342C52.371 29.4552 52.9683 29.0761 53.6095 28.7112L53.6828 28.5511C49.769 21.1784 43.5006 5.86582 57.3958 3.44908C70.6108 1.15069 70.8431 17.2924 70.355 24.206L70.4621 24.2131C72.1917 24.1864 73.9603 24.2885 75.7425 24.5486C75.6971 24.4718 73.3531 20.4746 75.382 14.1844C76.9721 9.26069 84.945 -2.90119 92.7348 2.52791C100.954 8.25711 97.4111 15.84 93.7998 20.6142C90.6709 24.7482 86.8275 26.658 85.0822 27.5053L85.1351 27.5334C85.6031 27.7743 86.0721 28.0269 86.5374 28.2991C99.484 35.8419 99.9648 53.719 99.9648 53.719L99.9277 53.5948C99.862 53.4001 99.819 53.2873 99.8061 53.255ZM83.1567 26.6075C83.9279 26.9335 84.6857 27.2924 85.4258 27.6816L83.1567 26.6075ZM70.3588 24.6382C70.2742 25.5075 70.1678 26.3741 70.0446 27.2374L70.3588 24.6382ZM55.9827 32.5069C55.1304 31.1822 54.3492 29.8095 53.6137 28.4164L55.9827 32.5069ZM30.3214 59.616C30.0965 57.9112 30.1079 56.1713 30.4348 54.4812L30.3214 59.616Z" fill="#1B75BB"/>
<path d="M83.1567 26.6075C83.9279 26.9335 84.6857 27.2924 85.4258 27.6816M70.3588 24.6382C70.2742 25.5075 70.1678 26.3741 70.0446 27.2374M55.9827 32.5069C55.1304 31.1822 54.3492 29.8095 53.6137 28.4164M30.3214 59.616C30.0965 57.9112 30.1079 56.1713 30.4348 54.4812M99.8061 53.255C99.9258 53.5725 102.775 61.3169 97.9265 69.1316C94.6421 74.4213 88.7218 81.3293 72.3207 84.1739C64.2902 85.5649 56.9096 84.0965 51.4588 81.3525C51.5392 81.393 51.6152 81.4362 51.6962 81.4758L51.6183 81.4375C46.6219 79.6789 40.2343 76.8422 35.7016 71.5659C35.7016 71.5659 33.9126 76.3002 24.1573 77.3298C11.83 78.634 6.2571 72.2162 5.17564 67.1119C4.07773 61.9328 5.16136 55.7961 15.4448 53.1297C24.0542 50.9014 29.0299 53.1325 30.4206 53.9163L30.5323 54.0239C31.2394 50.9631 32.7267 49.453 32.7267 49.453L32.5908 49.4173C28.7948 48.3523 23.7671 46.5646 17.5438 43.5514C4.51611 37.2427 3.5214 24.224 6.54805 19.2523C9.68145 14.1129 19.6722 7.13415 35.2331 14.1286C43.9896 18.0611 48.8342 24.8607 51.3976 30.0482L51.8266 29.8342C52.371 29.4552 52.9683 29.0761 53.6095 28.7112L53.6828 28.5511C49.769 21.1784 43.5006 5.86582 57.3958 3.44908C70.6108 1.15069 70.8431 17.2924 70.355 24.206L70.4621 24.2131C72.1917 24.1864 73.9603 24.2885 75.7425 24.5486C75.697 24.4718 73.3531 20.4746 75.382 14.1844C76.9721 9.26069 84.945 -2.90119 92.7348 2.52791C100.954 8.25711 97.4111 15.84 93.7998 20.6142C90.6709 24.7482 86.8275 26.658 85.0822 27.5053L85.1351 27.5334C85.6031 27.7743 86.0721 28.0269 86.5374 28.2991C99.484 35.8419 99.9648 53.719 99.9648 53.719L99.9277 53.5948C99.862 53.4001 99.819 53.2873 99.8061 53.255Z" stroke="black" stroke-width="0.773781" stroke-linecap="round" stroke-linejoin="round"/>
<path d="M20.7249 77.4965C10.7809 77.3875 6.15126 71.7166 5.17564 67.1119C4.07772 61.9328 5.16135 55.7961 15.4448 53.1297C16.9407 52.7418 18.327 52.4891 19.6011 52.3401L19.7003 52.3379C16.2313 60.7406 16.6508 70.2363 20.6531 77.4025L20.7249 77.4965Z" fill="#F1F1F2" stroke="black" stroke-width="0.773781"/>
<path d="M15.5082 42.4565C4.41878 35.8384 3.68746 23.9512 6.54719 19.2516C9.53135 14.3542 18.7491 7.78819 33.074 13.2322L32.9399 13.2895C25.257 16.4393 18.9604 23.2436 16.4995 32.1967C15.5568 35.6343 15.2632 39.0891 15.5397 42.4166L15.5082 42.4565Z" fill="#F1F1F2" stroke="black" stroke-width="0.773781"/>
<path d="M49.1677 16.5639C48.0668 10.5643 49.3549 4.84484 57.3972 3.44741C65.5115 2.03756 68.7327 7.57783 69.8956 13.6662L69.8269 13.6083C62.768 11.5446 55.3526 12.7546 49.1926 16.4656L49.1677 16.5639Z" fill="#F1F1F2" stroke="black" stroke-width="0.773781"/>
<path d="M84.9015 2.15453C87.3537 0.874494 90.0559 0.660272 92.7333 2.528C97.9967 6.20057 98.4362 10.6308 97.1203 14.5975L97.0384 14.6107C94.5627 9.26035 90.3878 4.80537 84.8924 2.18332L84.9015 2.15453Z" fill="#F1F1F2" stroke="black" stroke-width="0.773781"/>
<path d="M88.1696 43.36C83.2033 40.3515 75.0641 31.3536 75.0641 31.3536C75.0641 31.3536 75.7442 41.5234 62.6099 51.262C49.4744 61.0061 42.1177 60.3223 42.1752 70.3864C42.2172 77.9472 55.9231 87.0153 72.3215 84.1748C88.7218 81.3294 94.6414 74.4223 97.9266 69.1325C102.876 61.1522 99.8017 53.2407 99.8017 53.2407C97.712 47.7726 95.3136 47.6796 88.1696 43.36Z" fill="#E6E7E8" stroke="black" stroke-width="0.773781"/>
<path d="M81.7544 73.106C72.1875 75.5974 68.4759 62.1241 68.4759 62.1241C68.4759 62.1241 72.679 60.5865 80.5208 58.7433C88.3604 56.9019 90.383 58.5059 90.383 58.5059C90.383 58.5059 91.3231 70.6182 81.7544 73.106Z" fill="white" stroke="#231F20" stroke-width="0.773781" stroke-linecap="round"/>
<path d="M88.62 54.3632C88.2368 54.3962 87.8716 54.1596 87.7545 53.7814C87.5377 53.084 87.6088 52.3463 87.948 51.7036C88.2879 51.0577 88.8593 50.5854 89.5569 50.3701C90.2514 50.1552 90.9905 50.226 91.6342 50.5669C92.2753 50.9071 92.747 51.4786 92.9638 52.1768C93.0086 52.3282 93.0403 52.4801 93.0589 52.633C93.1168 53.0894 92.7929 53.5055 92.3356 53.5618C91.9158 53.629 91.4624 53.2959 91.4083 52.8384C91.4001 52.7786 91.3856 52.7192 91.3716 52.6645C91.1993 52.1046 90.6035 51.787 90.0462 51.9614C89.7746 52.0452 89.552 52.2306 89.4173 52.4798C89.2857 52.7296 89.2614 53.0159 89.3429 53.2861C89.4785 53.7265 89.232 54.1919 88.7941 54.3289C88.7358 54.3464 88.6778 54.3583 88.62 54.3632Z" fill="#231F20"/>
<path d="M65.1221 58.2681C64.7412 58.3008 64.3755 58.0665 64.2575 57.686C64.0447 56.9906 64.1118 56.2533 64.4512 55.6106C64.7897 54.9672 65.3641 54.4938 66.06 54.2779C66.7542 54.0583 67.4904 54.131 68.1324 54.4712C68.7782 54.811 69.2506 55.3832 69.4683 56.0821C69.5139 56.2327 69.5456 56.3853 69.5667 56.5404C69.6207 56.9971 69.2991 57.4122 68.8419 57.4686C68.3795 57.5285 67.9678 57.2028 67.9122 56.7446C67.9048 56.6871 67.8919 56.6267 67.8748 56.5715C67.7916 56.2999 67.6063 56.0759 67.3548 55.9421C67.1066 55.8105 66.8209 55.7852 66.5523 55.8681C66.2808 55.9528 66.0574 56.1366 65.9244 56.388C65.7921 56.6378 65.7646 56.9229 65.8491 57.1928C65.9846 57.6316 65.7373 58.0979 65.2986 58.2343C65.2396 58.2525 65.1807 58.2631 65.1221 58.2681Z" fill="#231F20"/>
</svg>